<svg xmlns="http://www.w3.org/2000/svg" id="Layer_1" x="0" y="0" version="1.1" viewBox="0 0 100 100" xml:space="preserve"><style>.st2{fill:#05263a}</style><path fill="#fcdc00" d="M50 97.14C24.006 97.14 2.859 75.994 2.859 50S24.006 2.86 50 2.86 97.14 24.007 97.14 50 75.993 97.14 50 97.14z"/><path d="M50 5.219c24.732 0 44.781 20.049 44.781 44.781S74.732 94.781 50 94.781 5.219 74.732 5.219 50 25.268 5.219 50 5.219M50 .5C22.706.5.5 22.706.5 50S22.706 99.5 50 99.5c27.295 0 49.5-22.206 49.5-49.5S77.294.5 50 .5z" class="st2"/><g><path d="M78.566 48.044l3.804-5.473-4.103-10.013-6.548-1.203-2.909-2.931-1.136-6.553-10.046-4.18-5.472 3.772-4.101-.023-5.446-3.81-10.049 4.103-1.203 6.549-2.936 2.914-6.549 1.168-4.179 10.008 3.773 5.475-.021 4.131-3.815 5.452 4.142 10.051 6.542 1.168 2.881 2.926 1.171 6.584 10.006 4.18 5.482-3.777h4.131l5.439 3.805 10.049-4.1 1.203-6.55 2.933-2.909 6.55-1.136 4.181-10.01-3.775-5.513v-4.105zm-1.57 10.169l-2.194 5.253-5.463.948-5.038 4.997-1.003 5.465-5.275 2.152-4.552-3.184h-7.086l-4.572 3.149-5.254-2.195-.975-5.491-4.963-5.04-5.473-.977-2.173-5.272 3.177-4.542.037-7.087-3.152-4.574 2.195-5.257 5.464-.974 5.032-4.994 1.005-5.464 5.275-2.154 4.544 3.179 7.057.04 4.577-3.154 5.278 2.196.946 5.461 4.999 5.036 5.466 1.004 2.152 5.25-3.184 4.58v7.047l3.153 4.602z" class="st2"/><path d="M61.298 37.86l-3.031 3.618a12.861 12.861 0 0 1 4.615 9.881c0 7.103-5.779 12.882-12.882 12.882-.214 0-.423-.022-.635-.032l9.158-14.428-10.339-2.297 7.701-13.622-4.109-2.323-10.835 19.168 9.994 2.221-6.398 10.081c-4.376-2.061-7.42-6.501-7.42-11.65 0-3.442 1.34-6.677 3.773-9.11l-3.337-3.336a17.485 17.485 0 0 0-5.156 12.447c0 9.706 7.896 17.601 17.601 17.601 9.706 0 17.601-7.896 17.601-17.601a17.565 17.565 0 0 0-6.301-13.5z" class="st2"/></g></svg>